<svg data-v-423bf9ae="" xmlns="http://www.w3.org/2000/svg" viewBox="0 0 353.36352696580974 163" class="iconAbove"><!----><defs data-v-423bf9ae=""><linearGradient data-v-423bf9ae="" gradientTransform="rotate(25)" id="38a26e13-0536-4e3a-97b0-5f0a7b0a19bf" x1="0%" y1="0%" x2="100%" y2="0%"><stop data-v-423bf9ae="" offset="0%" style="stop-color: rgb(81, 164, 251); stop-opacity: 1;"></stop><stop data-v-423bf9ae="" offset="100%" style="stop-color: rgb(81, 164, 251); stop-opacity: 1;"></stop></linearGradient></defs><!----><g data-v-423bf9ae="" id="63a9d04d-2b32-4634-8aa6-983708384eed" fill="#ffffff" transform="matrix(5.439709543503888,0,0,5.439709543503888,-1.1423427279459304,105.12148713409238)"><path d="M3.86 10.50L5.12 10.50L8.60 0.90L7.32 0.90L5.10 7.64C4.72 8.81 4.51 9.44 4.51 9.44C4.51 9.44 4.33 8.79 3.91 7.64L1.47 0.90L0.21 0.90ZM10.02 10.50L11.14 10.50L11.14 3.14L10.02 3.14ZM9.97 1.61L11.20 1.61L11.20 0.35L9.97 0.35ZM18.69 8.48C18.69 6.92 17.40 6.57 16.21 6.26C14.73 5.88 14.32 5.56 14.32 4.84C14.32 4.24 14.92 3.85 15.79 3.85C16.73 3.85 17.33 4.17 17.50 4.93L18.54 4.80C18.28 3.56 17.30 3.00 15.79 3.00C14.28 3.00 13.23 3.72 13.23 5.01C13.23 6.19 13.99 6.82 15.60 7.21C16.88 7.52 17.60 7.71 17.60 8.57C17.60 9.48 16.88 9.80 15.85 9.80C14.76 9.80 14.17 9.25 13.97 8.57L12.92 8.78C13.24 10.14 14.31 10.64 15.86 10.64C17.74 10.64 18.69 9.87 18.69 8.48ZM21.57 3.14L20.44 3.14L20.44 8.06C20.44 9.88 21.15 10.64 22.76 10.64C24.16 10.64 24.82 9.97 25.14 9.14L25.21 10.50L26.29 10.50C26.28 9.87 26.26 9.46 26.26 8.93L26.26 3.14L25.13 3.14L25.13 7.41C25.13 8.90 24.35 9.76 23.14 9.76C21.99 9.76 21.57 9.30 21.57 7.84ZM35.20 9.73L34.54 9.73C34.23 9.73 34.10 9.60 34.10 9.23L34.10 5.50C34.10 3.85 33.15 3.00 31.43 3.00C29.51 3.00 28.81 3.88 28.63 4.97L29.75 5.10C29.90 4.19 30.44 3.86 31.37 3.86C32.42 3.86 33.00 4.35 33.00 5.46L33.00 6.06L31.61 6.06C29.47 6.06 28.29 6.69 28.29 8.43C28.29 9.60 29.04 10.64 30.63 10.64C31.72 10.64 32.66 10.28 33.04 9.09L33.04 9.45C33.04 10.22 33.52 10.64 34.24 10.64C34.64 10.64 34.93 10.63 35.20 10.60ZM30.90 9.80C29.89 9.80 29.41 9.16 29.41 8.36C29.41 7.18 30.31 6.85 31.60 6.85L33.00 6.85L33.00 7.38C33.00 8.53 32.56 9.80 30.90 9.80ZM36.78 10.50L37.91 10.50L37.91-0.39L36.78-0.39ZM47.15 7.85C47.15 5.80 45.53 5.46 43.75 5.01C42.31 4.65 41.31 4.44 41.31 3.25C41.31 2.35 41.94 1.68 43.40 1.68C45.02 1.68 45.47 2.20 45.74 3.16L46.93 2.95C46.51 1.53 45.61 0.76 43.48 0.76C41.68 0.76 40.11 1.50 40.11 3.29C40.11 5.18 41.62 5.66 43.22 6.02C44.98 6.43 45.98 6.64 45.98 7.92C45.98 9.14 45.11 9.70 43.50 9.70C41.64 9.70 41.09 8.99 40.82 7.97L39.65 8.19C40.03 9.76 41.24 10.64 43.47 10.64C46.00 10.64 47.15 9.46 47.15 7.85ZM54.12 6.73C54.12 9.02 53.31 9.80 52.04 9.80C50.92 9.80 49.97 9.00 49.97 6.73C49.97 4.54 50.78 3.84 52.05 3.84C53.37 3.84 54.12 4.59 54.12 6.73ZM55.31 6.79C55.31 4.24 54.24 3.00 52.07 3.00C49.99 3.00 48.78 4.21 48.78 6.76C48.78 9.46 50.09 10.64 51.98 10.64C54.07 10.64 55.31 9.42 55.31 6.79ZM60.59 4.07L60.59 3.02C60.38 3.01 60.27 3.01 60.20 3.01C59.16 3.01 58.52 3.61 58.31 4.59L58.25 3.14L57.18 3.14L57.22 4.84L57.22 10.50L58.35 10.50L58.35 6.13C58.35 5.14 58.86 4.06 60.10 4.06C60.24 4.06 60.38 4.06 60.59 4.07ZM61.64 3.99L62.52 3.99L62.52 9.20C62.52 10.01 62.99 10.63 63.80 10.63L65.17 10.63L65.17 9.67L64.36 9.67C63.81 9.67 63.66 9.42 63.66 8.96L63.66 3.99L65.04 3.99L65.04 3.14L63.66 3.14L63.66 0.99L62.52 0.99L62.52 3.14L61.64 3.14Z"></path></g><!----><g data-v-423bf9ae="" id="ba3ec70b-4fe2-4963-a024-96cc11d13414" transform="matrix(2.7842233292419,0,0,2.7842233292419,130.345775345793,1.0000000000000426)" stroke="none" fill="#ffffff"><path d="M5.78 16L16 5.78 26.22 16 16 26.22z"></path><path d="M32 3.714A3.714 3.714 0 0 0 28.286 0c-1.659 0-3.047 1.095-3.524 2.596H7.238C6.761 1.095 5.373 0 3.714 0A3.714 3.714 0 0 0 0 3.714a3.7 3.7 0 0 0 2.597 3.524v17.524A3.7 3.7 0 0 0 0 28.286 3.714 3.714 0 0 0 3.714 32c1.506 0 2.795-.9 3.378-2.188h17.816A3.707 3.707 0 0 0 28.286 32a3.709 3.709 0 1 0 1.526-7.093V7.092A3.707 3.707 0 0 0 32 3.714zm-3.188 20.911c-.173-.025-.346-.053-.526-.053a3.714 3.714 0 0 0-3.714 3.714c0 .18.028.353.053.526H7.375c.025-.173.053-.346.053-.526a3.714 3.714 0 0 0-3.714-3.714c-.04 0-.077.01-.117.012V7.416c.04.001.077.012.117.012a3.714 3.714 0 0 0 3.714-3.714c0-.04-.011-.078-.012-.117h17.168c-.001.04-.012.077-.012.117a3.714 3.714 0 0 0 3.714 3.714c.18 0 .352-.028.526-.053v17.25z"></path></g><!----></svg>