<svg data-v-423bf9ae="" xmlns="http://www.w3.org/2000/svg" viewBox="0 0 393.3452147030547 163" class="iconAbove"><!----><!----><!----><g data-v-423bf9ae="" id="3ff700c0-ed18-4308-9dda-f38ad9d361aa" fill="#000000" transform="matrix(5.3523639425355505,0,0,5.3523639425355505,-1.4986568033503147,96.25602362921654)"><path d="M9.18 1.40L9.18 1.40Q9.35 1.40 9.45 1.51L9.45 1.51L9.45 1.51Q9.55 1.62 9.55 1.81L9.55 1.81L9.55 1.81Q9.55 1.96 9.49 2.09L9.49 2.09L5.31 12.07L5.31 12.07Q5.18 12.33 4.93 12.33L4.93 12.33L4.93 12.33Q4.79 12.33 4.70 12.27L4.70 12.27L4.70 12.27Q4.61 12.21 4.55 12.07L4.55 12.07L0.35 2.09L0.35 2.09Q0.28 1.90 0.28 1.79L0.28 1.79L0.28 1.79Q0.28 1.61 0.41 1.50L0.41 1.50L0.41 1.50Q0.53 1.40 0.71 1.40L0.71 1.40L0.71 1.40Q0.85 1.40 0.95 1.47L0.95 1.47L0.95 1.47Q1.05 1.54 1.12 1.69L1.12 1.69L4.94 10.85L8.72 1.75L8.72 1.75Q8.79 1.57 8.90 1.48L8.90 1.48L8.90 1.48Q9.02 1.40 9.18 1.40L9.18 1.40ZM11.37 5.10L11.37 5.10Q11.37 4.90 11.49 4.79L11.49 4.79L11.49 4.79Q11.61 4.68 11.79 4.68L11.79 4.68L11.79 4.68Q11.98 4.68 12.10 4.79L12.10 4.79L12.10 4.79Q12.21 4.90 12.21 5.10L12.21 5.10L12.21 11.91L12.21 11.91Q12.21 12.10 12.10 12.21L12.10 12.21L12.10 12.21Q11.98 12.33 11.79 12.33L11.79 12.33L11.79 12.33Q11.61 12.33 11.49 12.21L11.49 12.21L11.49 12.21Q11.37 12.10 11.37 11.91L11.37 11.91L11.37 5.10ZM11.79 1.76L11.79 1.76Q12.05 1.76 12.24 1.93L12.24 1.93L12.24 1.93Q12.43 2.10 12.43 2.41L12.43 2.41L12.43 2.41Q12.43 2.69 12.24 2.88L12.24 2.88L12.24 2.88Q12.05 3.07 11.77 3.07L11.77 3.07L11.77 3.07Q11.49 3.07 11.31 2.88L11.31 2.88L11.31 2.88Q11.13 2.69 11.13 2.41L11.13 2.41L11.13 2.41Q11.13 2.10 11.33 1.93L11.33 1.93L11.33 1.93Q11.52 1.76 11.79 1.76L11.79 1.76ZM17.63 4.59L17.63 4.59Q19.39 4.59 20.30 5.85L20.30 5.85L20.30 5.85Q20.38 5.95 20.38 6.09L20.38 6.09L20.38 6.09Q20.38 6.29 20.16 6.41L20.16 6.41L20.16 6.41Q20.02 6.47 19.95 6.47L19.95 6.47L19.95 6.47Q19.74 6.47 19.60 6.29L19.60 6.29L19.60 6.29Q18.89 5.38 17.60 5.38L17.60 5.38L17.60 5.38Q16.74 5.38 16.24 5.75L16.24 5.75L16.24 5.75Q15.74 6.12 15.74 6.66L15.74 6.66L15.74 6.66Q15.74 7.22 16.22 7.56L16.22 7.56L16.22 7.56Q16.70 7.90 17.84 8.06L17.84 8.06L17.84 8.06Q19.32 8.27 19.97 8.86L19.97 8.86L19.97 8.86Q20.62 9.44 20.62 10.26L20.62 10.26L20.62 10.26Q20.62 10.91 20.21 11.40L20.21 11.40L20.21 11.40Q19.80 11.89 19.11 12.15L19.11 12.15L19.11 12.15Q18.42 12.42 17.61 12.42L17.61 12.42L17.61 12.42Q16.80 12.42 16.03 12.13L16.03 12.13L16.03 12.13Q15.26 11.84 14.76 11.26L14.76 11.26L14.76 11.26Q14.66 11.14 14.66 11.00L14.66 11.00L14.66 11.00Q14.66 10.81 14.84 10.68L14.84 10.68L14.84 10.68Q14.92 10.61 15.08 10.61L15.08 10.61L15.08 10.61Q15.27 10.61 15.40 10.77L15.40 10.77L15.40 10.77Q16.10 11.62 17.65 11.62L17.65 11.62L17.65 11.62Q18.76 11.62 19.29 11.23L19.29 11.23L19.29 11.23Q19.81 10.84 19.81 10.22L19.81 10.22L19.81 10.22Q19.81 9.11 17.67 8.81L17.67 8.81L17.67 8.81Q16.31 8.61 15.62 8.06L15.62 8.06L15.62 8.06Q14.92 7.52 14.92 6.75L14.92 6.75L14.92 6.75Q14.92 5.73 15.67 5.16L15.67 5.16L15.67 5.16Q16.42 4.59 17.63 4.59L17.63 4.59ZM28.99 4.68L28.99 4.68Q29.19 4.68 29.30 4.79L29.30 4.79L29.30 4.79Q29.41 4.90 29.41 5.10L29.41 5.10L29.41 11.91L29.41 11.91Q29.41 12.10 29.30 12.21L29.30 12.21L29.30 12.21Q29.19 12.33 28.99 12.33L28.99 12.33L28.99 12.33Q28.81 12.33 28.69 12.21L28.69 12.21L28.69 12.21Q28.57 12.10 28.57 11.91L28.57 11.91L28.57 11.19L28.57 11.19Q28.10 11.77 27.41 12.10L27.41 12.10L27.41 12.10Q26.73 12.43 25.91 12.43L25.91 12.43L25.91 12.43Q24.89 12.43 24.09 12.01L24.09 12.01L24.09 12.01Q23.28 11.59 22.83 10.79L22.83 10.79L22.83 10.79Q22.37 9.98 22.37 8.86L22.37 8.86L22.37 5.10L22.37 5.10Q22.37 4.91 22.49 4.79L22.49 4.79L22.49 4.79Q22.61 4.68 22.79 4.68L22.79 4.68L22.79 4.68Q22.97 4.68 23.09 4.79L23.09 4.79L23.09 4.79Q23.21 4.91 23.21 5.10L23.21 5.10L23.21 8.86L23.21 8.86Q23.21 10.19 23.96 10.89L23.96 10.89L23.96 10.89Q24.71 11.59 25.91 11.59L25.91 11.59L25.91 11.59Q26.66 11.59 27.27 11.30L27.27 11.30L27.27 11.30Q27.87 11.02 28.22 10.51L28.22 10.51L28.22 10.51Q28.57 10.00 28.57 9.38L28.57 9.38L28.57 5.10L28.57 5.10Q28.57 4.90 28.69 4.79L28.69 4.79L28.69 4.79Q28.81 4.68 28.99 4.68L28.99 4.68ZM35.43 4.59L35.43 4.59Q36.53 4.59 37.42 5.10L37.42 5.10L37.42 5.10Q38.32 5.61 38.83 6.51L38.83 6.51L38.83 6.51Q39.34 7.41 39.34 8.51L39.34 8.51L39.34 11.91L39.34 11.91Q39.34 12.10 39.23 12.21L39.23 12.21L39.23 12.21Q39.12 12.33 38.92 12.33L38.92 12.33L38.92 12.33Q38.74 12.33 38.62 12.21L38.62 12.21L38.62 12.21Q38.50 12.10 38.50 11.91L38.50 11.91L38.50 10.82L38.50 10.82Q38.04 11.56 37.23 11.99L37.23 11.99L37.23 11.99Q36.43 12.42 35.43 12.42L35.43 12.42L35.43 12.42Q34.33 12.42 33.43 11.91L33.43 11.91L33.43 11.91Q32.54 11.40 32.02 10.50L32.02 10.50L32.02 10.50Q31.51 9.60 31.51 8.51L31.51 8.51L31.51 8.51Q31.51 7.41 32.02 6.51L32.02 6.51L32.02 6.51Q32.54 5.61 33.43 5.10L33.43 5.10L33.43 5.10Q34.33 4.59 35.43 4.59L35.43 4.59ZM35.43 11.63L35.43 11.63Q36.30 11.63 37.00 11.23L37.00 11.23L37.00 11.23Q37.70 10.82 38.10 10.11L38.10 10.11L38.10 10.11Q38.50 9.39 38.50 8.51L38.50 8.51L38.50 8.51Q38.50 7.63 38.10 6.92L38.10 6.92L38.10 6.92Q37.70 6.20 37.00 5.79L37.00 5.79L37.00 5.79Q36.30 5.38 35.43 5.38L35.43 5.38L35.43 5.38Q34.57 5.38 33.87 5.79L33.87 5.79L33.87 5.79Q33.17 6.20 32.76 6.92L32.76 6.92L32.76 6.92Q32.35 7.63 32.35 8.51L32.35 8.51L32.35 8.51Q32.35 9.39 32.76 10.11L32.76 10.11L32.76 10.11Q33.17 10.82 33.87 11.23L33.87 11.23L33.87 11.23Q34.57 11.63 35.43 11.63L35.43 11.63ZM41.16 1.82L41.16 1.82Q41.16 1.62 41.28 1.51L41.28 1.51L41.28 1.51Q41.40 1.40 41.58 1.40L41.58 1.40L41.58 1.40Q41.78 1.40 41.89 1.51L41.89 1.51L41.89 1.51Q42 1.62 42 1.82L42 1.82L42 10.02L42 10.02Q42 10.67 42.27 11.08L42.27 11.08L42.27 11.08Q42.55 11.49 42.98 11.49L42.98 11.49L43.33 11.49L43.33 11.49Q43.48 11.49 43.58 11.61L43.58 11.61L43.58 11.61Q43.68 11.72 43.68 11.91L43.68 11.91L43.68 11.91Q43.68 12.10 43.57 12.21L43.57 12.21L43.57 12.21Q43.46 12.33 43.26 12.33L43.26 12.33L42.98 12.33L42.98 12.33Q42.18 12.33 41.67 11.69L41.67 11.69L41.67 11.69Q41.16 11.05 41.16 10.02L41.16 10.02L41.16 1.82ZM48.51 1.26L48.51 1.26Q49.53 1.26 50.39 1.75L50.39 1.75L50.39 1.75Q51.24 2.24 51.65 2.93L51.65 2.93L51.65 2.93Q51.70 3.02 51.70 3.15L51.70 3.15L51.70 3.15Q51.70 3.26 51.64 3.35L51.64 3.35L51.64 3.35Q51.58 3.44 51.46 3.50L51.46 3.50L51.46 3.50Q51.41 3.53 51.30 3.53L51.30 3.53L51.30 3.53Q51.04 3.53 50.90 3.32L50.90 3.32L50.90 3.32Q50.08 2.10 48.51 2.10L48.51 2.10L48.51 2.10Q47.35 2.10 46.70 2.63L46.70 2.63L46.70 2.63Q46.05 3.15 46.05 4.09L46.05 4.09L46.05 4.09Q46.05 4.87 46.69 5.40L46.69 5.40L46.69 5.40Q47.33 5.94 48.68 6.16L48.68 6.16L48.68 6.16Q50.44 6.45 51.25 7.24L51.25 7.24L51.25 7.24Q52.07 8.04 52.07 9.32L52.07 9.32L52.07 9.32Q52.07 10.29 51.64 11.00L51.64 11.00L51.64 11.00Q51.21 11.72 50.44 12.10L50.44 12.10L50.44 12.10Q49.66 12.47 48.64 12.47L48.64 12.47L48.64 12.47Q47.32 12.47 46.35 11.93L46.35 11.93L46.35 11.93Q45.39 11.40 44.91 10.46L44.91 10.46L44.91 10.46Q44.87 10.37 44.87 10.29L44.87 10.29L44.87 10.29Q44.87 10.12 44.99 10.01L44.99 10.01L44.99 10.01Q45.11 9.90 45.30 9.90L45.30 9.90L45.30 9.90Q45.58 9.90 45.71 10.16L45.71 10.16L45.71 10.16Q46.09 10.86 46.84 11.25L46.84 11.25L46.84 11.25Q47.59 11.63 48.64 11.63L48.64 11.63L48.64 11.63Q49.84 11.63 50.53 11.03L50.53 11.03L50.53 11.03Q51.23 10.43 51.23 9.32L51.23 9.32L51.23 9.32Q51.23 8.37 50.55 7.75L50.55 7.75L50.55 7.75Q49.87 7.13 48.54 6.94L48.54 6.94L48.54 6.94Q46.98 6.72 46.09 5.93L46.09 5.93L46.09 5.93Q45.21 5.14 45.21 4.00L45.21 4.00L45.21 4.00Q45.21 3.19 45.62 2.57L45.62 2.57L45.62 2.57Q46.03 1.95 46.78 1.60L46.78 1.60L46.78 1.60Q47.53 1.26 48.51 1.26L48.51 1.26ZM57.74 4.59L57.74 4.59Q58.83 4.59 59.72 5.10L59.72 5.10L59.72 5.10Q60.62 5.61 61.13 6.51L61.13 6.51L61.13 6.51Q61.64 7.41 61.64 8.51L61.64 8.51L61.64 8.51Q61.64 9.60 61.13 10.50L61.13 10.50L61.13 10.50Q60.62 11.40 59.72 11.91L59.72 11.91L59.72 11.91Q58.83 12.42 57.74 12.42L57.74 12.42L57.74 12.42Q56.63 12.42 55.73 11.91L55.73 11.91L55.73 11.91Q54.84 11.40 54.33 10.50L54.33 10.50L54.33 10.50Q53.82 9.60 53.82 8.51L53.82 8.51L53.82 8.51Q53.82 7.41 54.33 6.51L54.33 6.51L54.33 6.51Q54.84 5.61 55.73 5.10L55.73 5.10L55.73 5.10Q56.63 4.59 57.74 4.59L57.74 4.59ZM57.74 5.38L57.74 5.38Q56.87 5.38 56.17 5.79L56.17 5.79L56.17 5.79Q55.47 6.20 55.06 6.92L55.06 6.92L55.06 6.92Q54.66 7.63 54.66 8.51L54.66 8.51L54.66 8.51Q54.66 9.39 55.06 10.11L55.06 10.11L55.06 10.11Q55.47 10.82 56.17 11.23L56.17 11.23L56.17 11.23Q56.87 11.63 57.74 11.63L57.74 11.63L57.74 11.63Q58.60 11.63 59.30 11.23L59.30 11.23L59.30 11.23Q60.00 10.82 60.40 10.11L60.40 10.11L60.40 10.11Q60.80 9.39 60.80 8.51L60.80 8.51L60.80 8.51Q60.80 7.63 60.40 6.92L60.40 6.92L60.40 6.92Q60.00 6.20 59.30 5.79L59.30 5.79L59.30 5.79Q58.60 5.38 57.74 5.38L57.74 5.38ZM66.99 4.59L66.99 4.59Q68.05 4.59 68.05 5.05L68.05 5.05L68.05 5.05Q68.05 5.12 68.04 5.17L68.04 5.17L68.04 5.17Q68.00 5.32 67.91 5.38L67.91 5.38L67.91 5.38Q67.82 5.45 67.66 5.45L67.66 5.45L67.66 5.45Q67.54 5.45 67.33 5.42L67.33 5.42L67.33 5.42Q67.13 5.39 66.99 5.39L66.99 5.39L66.99 5.39Q66.29 5.39 65.74 5.68L65.74 5.68L65.74 5.68Q65.20 5.98 64.89 6.50L64.89 6.50L64.89 6.50Q64.58 7.01 64.58 7.66L64.58 7.66L64.58 11.91L64.58 11.91Q64.58 12.10 64.47 12.21L64.47 12.21L64.47 12.21Q64.36 12.33 64.16 12.33L64.16 12.33L64.16 12.33Q63.98 12.33 63.86 12.21L63.86 12.21L63.86 12.21Q63.74 12.10 63.74 11.91L63.74 11.91L63.74 5.10L63.74 5.10Q63.74 4.90 63.86 4.79L63.86 4.79L63.86 4.79Q63.98 4.68 64.16 4.68L64.16 4.68L64.16 4.68Q64.36 4.68 64.47 4.79L64.47 4.79L64.47 4.79Q64.58 4.90 64.58 5.10L64.58 5.10L64.58 5.96L64.58 5.96Q64.99 5.32 65.62 4.96L65.62 4.96L65.62 4.96Q66.25 4.59 66.99 4.59L66.99 4.59ZM73.33 11.48L73.33 11.48Q73.53 11.48 73.65 11.60L73.65 11.60L73.65 11.60Q73.77 11.72 73.77 11.91L73.77 11.91L73.77 11.91Q73.77 12.10 73.65 12.21L73.65 12.21L73.65 12.21Q73.53 12.33 73.33 12.33L73.33 12.33L73.01 12.33L73.01 12.33Q72.24 12.33 71.64 11.98L71.64 11.98L71.64 11.98Q71.04 11.63 70.70 11.03L70.70 11.03L70.70 11.03Q70.36 10.42 70.36 9.65L70.36 9.65L70.36 5.71L69.27 5.71L69.27 5.71Q69.10 5.71 69.00 5.61L69.00 5.61L69.00 5.61Q68.89 5.50 68.89 5.33L68.89 5.33L68.89 5.33Q68.89 5.17 69.00 5.06L69.00 5.06L69.00 5.06Q69.10 4.96 69.27 4.96L69.27 4.96L70.36 4.96L70.36 2.67L70.36 2.67Q70.36 2.48 70.48 2.36L70.48 2.36L70.48 2.36Q70.60 2.24 70.78 2.24L70.78 2.24L70.78 2.24Q70.98 2.24 71.10 2.36L71.10 2.36L71.10 2.36Q71.22 2.48 71.22 2.67L71.22 2.67L71.22 4.96L73.07 4.96L73.07 4.96Q73.23 4.96 73.34 5.06L73.34 5.06L73.34 5.06Q73.44 5.17 73.44 5.33L73.44 5.33L73.44 5.33Q73.44 5.50 73.34 5.61L73.34 5.61L73.34 5.61Q73.23 5.71 73.07 5.71L73.07 5.71L71.22 5.71L71.22 9.65L71.22 9.65Q71.22 10.46 71.72 10.97L71.72 10.97L71.72 10.97Q72.23 11.48 73.02 11.48L73.02 11.48L73.33 11.48Z"></path></g><defs data-v-423bf9ae=""><linearGradient data-v-423bf9ae="" gradientTransform="rotate(25)" id="5787c988-41a5-4a16-9106-5d7ba13400be" x1="0%" y1="0%" x2="100%" y2="0%"><stop data-v-423bf9ae="" offset="0%" style="stop-color: rgb(81, 6, 255); stop-opacity: 1;"></stop><stop data-v-423bf9ae="" offset="100%" style="stop-color: rgb(97, 203, 242); stop-opacity: 1;"></stop></linearGradient></defs><g data-v-423bf9ae="" id="0cb2e29f-7247-49b5-9684-bfd9d3d6adc5" transform="matrix(2.7842233292419,0,0,2.7842233292419,150.345775345793,1.0000000000000426)" stroke="none" fill="url(#5787c988-41a5-4a16-9106-5d7ba13400be)"><path d="M5.78 16L16 5.78 26.22 16 16 26.22z"></path><path d="M32 3.714A3.714 3.714 0 0 0 28.286 0c-1.659 0-3.047 1.095-3.524 2.596H7.238C6.761 1.095 5.373 0 3.714 0A3.714 3.714 0 0 0 0 3.714a3.7 3.7 0 0 0 2.597 3.524v17.524A3.7 3.7 0 0 0 0 28.286 3.714 3.714 0 0 0 3.714 32c1.506 0 2.795-.9 3.378-2.188h17.816A3.707 3.707 0 0 0 28.286 32a3.709 3.709 0 1 0 1.526-7.093V7.092A3.707 3.707 0 0 0 32 3.714zm-3.188 20.911c-.173-.025-.346-.053-.526-.053a3.714 3.714 0 0 0-3.714 3.714c0 .18.028.353.053.526H7.375c.025-.173.053-.346.053-.526a3.714 3.714 0 0 0-3.714-3.714c-.04 0-.077.01-.117.012V7.416c.04.001.077.012.117.012a3.714 3.714 0 0 0 3.714-3.714c0-.04-.011-.078-.012-.117h17.168c-.001.04-.012.077-.012.117a3.714 3.714 0 0 0 3.714 3.714c.18 0 .352-.028.526-.053v17.25z"></path></g><!----></svg>